<?xml version="1.0" encoding="utf-8"?>
<!-- Generator: Adobe Illustrator 15.0.2, SVG Export Plug-In . SVG Version: 6.00 Build 0)  -->
<svg version="1.1" id="Layer_1" xmlns="http://www.w3.org/2000/svg" x="0px"
     y="0px"
     width="566px" height="543.325px" viewBox="0 0 566 543.325" enable-background="new 0 0 566 543.325"
     xml:space="preserve">
<rect x="166" fill="#2B9084" width="100" height="100"/>
    <rect x="166" y="100" fill="#2D5999" width="100" height="100"/>
    <rect x="266" fill="#32A571" width="100" height="100"/>
    <rect x="266" y="100" fill="#2B7592" width="100" height="100"/>
    <rect x="366" fill="#81BA43" width="100" height="100"/>
    <rect x="466" fill="#A1AE3F" width="100" height="100"/>
    <rect x="366" y="100" fill="#4EB060" width="100" height="100"/>
    <rect x="466" y="100" fill="#81BA43" width="100" height="100"/>
    <rect x="166" y="200" fill="#722033" width="100" height="100"/>
    <rect x="366" y="200" fill="#482B85" width="100" height="100"/>
    <rect x="466" y="200" fill="#3B3F91" width="100" height="100"/>
    <rect y="300" fill="#5F3A14" width="100" height="100"/>
    <rect x="466" y="300" fill="#572674" width="100" height="100"/>
    <rect x="366" y="300" fill="#662162" width="100" height="100"/>
    <rect x="216" y="350" transform="matrix(0.7071 0.7071 -0.7071 0.7071 360.7539 -70.9328)" fill="#71154A" width="100"
          height="100"/>
    <rect x="82" y="430" transform="matrix(0.9479 0.3186 -0.3186 0.9479 159.8188 -17.0414)" fill="#6E2C1F" width="100"
          height="100"/>
</svg>
